<mxfile host="app.diagrams.net" agent="Mozilla/5.0 (Windows NT 10.0; Win64; x64) AppleWebKit/537.36 (KHTML, like Gecko) Chrome/133.0.0.0 Safari/537.36" version="26.1.0">
  <diagram name="Page-1" id="jRIkNowXIHmUUiCj-9zD">
    <mxGraphModel dx="1315" dy="1760" grid="1" gridSize="10" guides="1" tooltips="1" connect="1" arrows="1" fold="1" page="1" pageScale="1" pageWidth="850" pageHeight="1100" math="0" shadow="0">
      <root>
        <mxCell id="0" />
        <mxCell id="1" parent="0" />
        <mxCell id="jkkhLsWOZfeSYtvW_FcO-1" value="" style="sketch=0;aspect=fixed;pointerEvents=1;shadow=0;dashed=0;html=1;strokeColor=none;labelPosition=center;verticalLabelPosition=bottom;verticalAlign=top;align=center;fillColor=#00188D;shape=mxgraph.azure.file" vertex="1" parent="1">
          <mxGeometry x="90" y="220" width="47" height="50" as="geometry" />
        </mxCell>
        <mxCell id="jkkhLsWOZfeSYtvW_FcO-2" value="" style="image;aspect=fixed;html=1;points=[];align=center;fontSize=12;image=img/lib/azure2/databases/Data_Factory.svg;" vertex="1" parent="1">
          <mxGeometry x="280" y="211" width="68" height="68" as="geometry" />
        </mxCell>
        <mxCell id="jkkhLsWOZfeSYtvW_FcO-4" style="edgeStyle=orthogonalEdgeStyle;rounded=0;orthogonalLoop=1;jettySize=auto;html=1;exitX=1;exitY=0.5;exitDx=0;exitDy=0;exitPerimeter=0;entryX=0;entryY=0.5;entryDx=0;entryDy=0;" edge="1" parent="1" source="jkkhLsWOZfeSYtvW_FcO-1" target="jkkhLsWOZfeSYtvW_FcO-29">
          <mxGeometry relative="1" as="geometry">
            <mxPoint x="280" y="244" as="targetPoint" />
          </mxGeometry>
        </mxCell>
        <mxCell id="jkkhLsWOZfeSYtvW_FcO-5" value="" style="image;aspect=fixed;html=1;points=[];align=center;fontSize=12;image=img/lib/azure2/analytics/Azure_Synapse_Analytics.svg;" vertex="1" parent="1">
          <mxGeometry x="490" y="60" width="60" height="69" as="geometry" />
        </mxCell>
        <mxCell id="jkkhLsWOZfeSYtvW_FcO-6" value="" style="endArrow=classic;html=1;rounded=0;exitX=1;exitY=0.25;exitDx=0;exitDy=0;entryX=-0.008;entryY=0.815;entryDx=0;entryDy=0;entryPerimeter=0;" edge="1" parent="1" source="jkkhLsWOZfeSYtvW_FcO-29" target="jkkhLsWOZfeSYtvW_FcO-26">
          <mxGeometry width="50" height="50" relative="1" as="geometry">
            <mxPoint x="400" y="320" as="sourcePoint" />
            <mxPoint x="450" y="270" as="targetPoint" />
          </mxGeometry>
        </mxCell>
        <mxCell id="jkkhLsWOZfeSYtvW_FcO-7" value="" style="image;aspect=fixed;html=1;points=[];align=center;fontSize=12;image=img/lib/azure2/analytics/Azure_Synapse_Analytics.svg;" vertex="1" parent="1">
          <mxGeometry x="490" y="370" width="60" height="69" as="geometry" />
        </mxCell>
        <mxCell id="jkkhLsWOZfeSYtvW_FcO-8" value="" style="image;aspect=fixed;html=1;points=[];align=center;fontSize=12;image=img/lib/azure2/databases/Data_Factory.svg;" vertex="1" parent="1">
          <mxGeometry x="482" y="211" width="68" height="68" as="geometry" />
        </mxCell>
        <mxCell id="jkkhLsWOZfeSYtvW_FcO-9" value="" style="endArrow=classic;html=1;rounded=0;exitX=0.448;exitY=1.008;exitDx=0;exitDy=0;exitPerimeter=0;entryX=0.569;entryY=0.048;entryDx=0;entryDy=0;entryPerimeter=0;" edge="1" parent="1" source="jkkhLsWOZfeSYtvW_FcO-26" target="jkkhLsWOZfeSYtvW_FcO-8">
          <mxGeometry width="50" height="50" relative="1" as="geometry">
            <mxPoint x="400" y="320" as="sourcePoint" />
            <mxPoint x="450" y="270" as="targetPoint" />
          </mxGeometry>
        </mxCell>
        <mxCell id="jkkhLsWOZfeSYtvW_FcO-10" value="" style="endArrow=classic;html=1;rounded=0;entryX=0.462;entryY=0.004;entryDx=0;entryDy=0;exitX=0.582;exitY=0.968;exitDx=0;exitDy=0;exitPerimeter=0;entryPerimeter=0;" edge="1" parent="1" source="jkkhLsWOZfeSYtvW_FcO-8" target="jkkhLsWOZfeSYtvW_FcO-27">
          <mxGeometry width="50" height="50" relative="1" as="geometry">
            <mxPoint x="400" y="320" as="sourcePoint" />
            <mxPoint x="450" y="270" as="targetPoint" />
          </mxGeometry>
        </mxCell>
        <mxCell id="jkkhLsWOZfeSYtvW_FcO-11" value="" style="image;aspect=fixed;html=1;points=[];align=center;fontSize=12;image=img/lib/azure2/power_platform/PowerBI.svg;" vertex="1" parent="1">
          <mxGeometry x="710" y="211" width="51" height="68" as="geometry" />
        </mxCell>
        <mxCell id="jkkhLsWOZfeSYtvW_FcO-12" value="" style="endArrow=classic;html=1;rounded=0;entryX=-0.006;entryY=0.561;entryDx=0;entryDy=0;entryPerimeter=0;" edge="1" parent="1" target="jkkhLsWOZfeSYtvW_FcO-25">
          <mxGeometry width="50" height="50" relative="1" as="geometry">
            <mxPoint x="555" y="260" as="sourcePoint" />
            <mxPoint x="450" y="270" as="targetPoint" />
          </mxGeometry>
        </mxCell>
        <mxCell id="jkkhLsWOZfeSYtvW_FcO-13" value="" style="rounded=1;whiteSpace=wrap;html=1;" vertex="1" parent="1">
          <mxGeometry x="210" y="540" width="460" height="110" as="geometry" />
        </mxCell>
        <mxCell id="jkkhLsWOZfeSYtvW_FcO-14" value="" style="image;aspect=fixed;html=1;points=[];align=center;fontSize=12;image=img/lib/azure2/security/Key_Vaults.svg;" vertex="1" parent="1">
          <mxGeometry x="280" y="561" width="59" height="59" as="geometry" />
        </mxCell>
        <mxCell id="jkkhLsWOZfeSYtvW_FcO-15" value="" style="image;aspect=fixed;html=1;points=[];align=center;fontSize=12;image=img/lib/azure2/identity/Entra_ID_Protection.svg;" vertex="1" parent="1">
          <mxGeometry x="511" y="565" width="68" height="60.440000000000005" as="geometry" />
        </mxCell>
        <mxCell id="jkkhLsWOZfeSYtvW_FcO-16" value="Power BI" style="text;html=1;align=center;verticalAlign=middle;whiteSpace=wrap;rounded=0;" vertex="1" parent="1">
          <mxGeometry x="705.5" y="290" width="60" height="30" as="geometry" />
        </mxCell>
        <mxCell id="jkkhLsWOZfeSYtvW_FcO-17" value="Flat Files" style="text;html=1;align=center;verticalAlign=middle;whiteSpace=wrap;rounded=0;" vertex="1" parent="1">
          <mxGeometry x="83.5" y="279" width="60" height="30" as="geometry" />
        </mxCell>
        <mxCell id="jkkhLsWOZfeSYtvW_FcO-18" value="Data Factory" style="text;html=1;align=center;verticalAlign=middle;whiteSpace=wrap;rounded=0;" vertex="1" parent="1">
          <mxGeometry x="284" y="310" width="60" height="40" as="geometry" />
        </mxCell>
        <mxCell id="jkkhLsWOZfeSYtvW_FcO-19" value="Data Factory" style="text;html=1;align=center;verticalAlign=middle;whiteSpace=wrap;rounded=0;" vertex="1" parent="1">
          <mxGeometry x="459" y="290" width="60" height="30" as="geometry" />
        </mxCell>
        <mxCell id="jkkhLsWOZfeSYtvW_FcO-20" value="Curated" style="text;html=1;align=center;verticalAlign=middle;whiteSpace=wrap;rounded=0;" vertex="1" parent="1">
          <mxGeometry x="530" y="129" width="60" height="30" as="geometry" />
        </mxCell>
        <mxCell id="jkkhLsWOZfeSYtvW_FcO-21" value="Gold" style="text;html=1;align=center;verticalAlign=middle;whiteSpace=wrap;rounded=0;" vertex="1" parent="1">
          <mxGeometry x="486" y="450" width="60" height="20" as="geometry" />
        </mxCell>
        <mxCell id="jkkhLsWOZfeSYtvW_FcO-22" value="Key Vault" style="text;html=1;align=center;verticalAlign=middle;whiteSpace=wrap;rounded=0;" vertex="1" parent="1">
          <mxGeometry x="280" y="620" width="60" height="30" as="geometry" />
        </mxCell>
        <mxCell id="jkkhLsWOZfeSYtvW_FcO-23" value="Entra ID" style="text;html=1;align=center;verticalAlign=middle;whiteSpace=wrap;rounded=0;" vertex="1" parent="1">
          <mxGeometry x="515" y="625.44" width="60" height="30" as="geometry" />
        </mxCell>
        <mxCell id="jkkhLsWOZfeSYtvW_FcO-25" value="" style="whiteSpace=wrap;html=1;aspect=fixed;fillColor=none;" vertex="1" parent="1">
          <mxGeometry x="680" y="190" width="130" height="130" as="geometry" />
        </mxCell>
        <mxCell id="jkkhLsWOZfeSYtvW_FcO-26" value="" style="whiteSpace=wrap;html=1;aspect=fixed;fillColor=none;" vertex="1" parent="1">
          <mxGeometry x="460" y="29" width="130" height="130" as="geometry" />
        </mxCell>
        <mxCell id="jkkhLsWOZfeSYtvW_FcO-27" value="" style="whiteSpace=wrap;html=1;aspect=fixed;fillColor=none;" vertex="1" parent="1">
          <mxGeometry x="460" y="339.5" width="130.5" height="130.5" as="geometry" />
        </mxCell>
        <mxCell id="jkkhLsWOZfeSYtvW_FcO-29" value="" style="whiteSpace=wrap;html=1;aspect=fixed;fillColor=none;" vertex="1" parent="1">
          <mxGeometry x="249" y="180" width="130" height="130" as="geometry" />
        </mxCell>
        <mxCell id="jkkhLsWOZfeSYtvW_FcO-30" value="&lt;h1&gt;&lt;b&gt;&lt;i&gt;&lt;font style=&quot;font-size: 32px;&quot;&gt;Customer 360 Pipeline&lt;/font&gt;&lt;/i&gt;&lt;/b&gt;&lt;/h1&gt;" style="text;html=1;align=center;verticalAlign=middle;whiteSpace=wrap;rounded=0;" vertex="1" parent="1">
          <mxGeometry x="145.5" y="-120" width="620" height="50" as="geometry" />
        </mxCell>
      </root>
    </mxGraphModel>
  </diagram>
</mxfile>
